# xmcd CD database file
#
# Track frame offsets:
#	150
#	23691
#	48320
#	73393
#	106322
#	125192
#	147830
#	179445
#	198929
#	224216
#	248048
#	270172
#	289423
#	315205
#	335810
#	361285
#	381362
#
# Disc length: 5247 seconds
#
# Revision: 0
# Processed by: cddbd v1.5.2PL0 Copyright (c) Steve Scherf et al.
# Submitted via: CDex 1.51
#
DISCID=15147d11
DTITLE=Leon de Winter - Leo Kaplan
DYEAR=2010
DGENRE=Hörbuch
TTITLE0=Kaplan 34
TTITLE1=Kaplan 35
TTITLE2=Kaplan 36
TTITLE3=Kaplan 37
TTITLE4=Kaplan 38
TTITLE5=Kaplan 39
TTITLE6=Kaplan 40
TTITLE7=Kaplan 41
TTITLE8=Kaplan 42
TTITLE9=Kaplan 43
TTITLE10=Kaplan 44
TTITLE11=Kaplan 45
TTITLE12=Kaplan 46
TTITLE13=Kaplan 47
TTITLE14=Kaplan 48
TTITLE15=Kaplan 49
TTITLE16=Kaplan 50
EXTD=YEAR: 2010
EXTT0=
EXTT1=
EXTT2=
EXTT3=
EXTT4=
EXTT5=
EXTT6=
EXTT7=
EXTT8=
EXTT9=
EXTT10=
EXTT11=
EXTT12=
EXTT13=
EXTT14=
EXTT15=
EXTT16=
PLAYORDER=
